<svg xmlns="http://www.w3.org/2000/svg" width="500" height="500"><path d="M0 250.002v250.002l250.25-.252 250.25-.252.252-249.75L501.004 0H0v250.002m0 .248V499.5l249.5-.254 249.5-.254V1H0v249.25m166.698-149.154c-11.474 2.7-24.861 13.103-30.517 23.716-6.34 11.895-6.15 8.048-6.166 124.802-.009 66.46.358 108.126.984 111.5 2.356 12.709 12.047 26.359 23.212 32.697 11.377 6.458 6.507 6.189 112.036 6.189 98.828 0 98.456.014 101.471-3.913.94-1.224 1.226-25.745 1.25-107.148.035-114.836.406-105.232-4.257-110.162-.116-.123-43.636-.474-96.711-.78-105.925-.611-99.792-.22-108.659-6.922-7.044-5.324-11.341-14.033-11.341-22.984 0-3.704.716-8.837 1.592-11.407 2.176-6.387 9.135-13.865 15.629-16.793l5.279-2.381 54.5-.633c29.975-.348 73.705-.688 97.177-.755l42.678-.122 2.072-2.635c2.872-3.651 2.6-6.991-.85-10.442L363.154 100l-96.327.1c-52.98.056-98.038.503-100.129.996m11.597 38.988c-6.294 1.866-8.208 8.585-3.877 13.61l2.419 2.806 80.331-.331c87.201-.358 84.034-.143 85.46-5.822.915-3.646-.704-7.627-3.651-8.976-3.215-1.471-155.935-2.695-160.682-1.287M148 271.841c0 97.023-.35 92.071 7.111 100.547 2.209 2.51 6.487 5.74 9.675 7.306l5.714 2.806 50 .5c27.5.275 68.45.5 91 .5h41l.255-94.867.255-94.868-89.755.742c-100.143.827-96.118 1.05-108.997-6.029l-6.258-3.44v86.803m95.035-45.907c-.569 1.064-1.035 4.154-1.035 6.867v4.932l-4.987 2.073C225.56 244.565 220 252.387 220 263.736c0 11.176 6.058 18.758 19.903 24.912 14.295 6.354 16.534 7.726 18.264 11.191 1.304 2.611 1.442 3.984.634 6.303-1.695 4.86-5.094 6.36-14.385 6.344l-8.168-.014 3.126 1.885c1.719 1.037 3.276 2.28 3.459 2.764.184.483.742.879 1.241.879.498 0 3.864 2.025 7.479 4.5 7.425 5.083 9.065 5.347 15.087 2.432 12.221-5.916 17.715-21.218 12.002-33.432-3.405-7.279-7.944-11.218-18.642-16.176-14.214-6.587-16.374-7.899-17.859-10.85-1.874-3.725-.167-7.147 4.549-9.118 4.451-1.86 12.105-1.153 20.161 1.861 6.182 2.313 6.251 2.269 8.653-5.649 2.861-9.429 2.176-10.306-10.504-13.454l-6.5-1.614-.314-4.975c-.173-2.736-.79-5.548-1.372-6.25-.637-.767-3.385-1.275-6.901-1.275-4.753 0-6.036.361-6.878 1.934m-23.576 116.133c-.363.586-.445 1.281-.183 1.543s.743-.218 1.069-1.067c.676-1.762.1-2.072-.886-.476" fill="undefined" fill-rule="evenodd"/></svg>